<svg xmlns="http://www.w3.org/2000/svg" class="hammer" width="100" height="100" viewBox="-50 -50 100 100" style="height: 100%; width: 100%; touch-action: none;">
  <defs>
    <linearGradient id="gradient-dynamic-0" gradientUnits="objectBoundingBox" x1="0" y1="0" x2="1" y2="1"><stop offset="22%" stop-color="#bababa"></stop><stop offset="72%" stop-color="#929090"></stop></linearGradient>
    <linearGradient id="gradient-dynamic-1" gradientUnits="objectBoundingBox" x1="0" y1="0" x2="1" y2="1"><stop offset="22%" stop-color="#bdbdbd"></stop><stop offset="72%" stop-color="#8c8c8c"></stop></linearGradient>
    <linearGradient id="gradient-dynamic-2" gradientUnits="objectBoundingBox" x1="0" y1="0" x2="1" y2="1"><stop offset="22%" stop-color="#ffff00"></stop><stop offset="72%" stop-color="#ffa300"></stop></linearGradient>
    <linearGradient id="gradient-dynamic-3" gradientUnits="objectBoundingBox" x1="0" y1="0" x2="1" y2="1"><stop offset="22%" stop-color="#d1d1d1"></stop><stop offset="72%" stop-color="#ababab"></stop></linearGradient>
    <linearGradient id="gradient-dynamic-4" gradientUnits="objectBoundingBox" x1="0" y1="0" x2="1" y2="1"><stop offset="22%" stop-color="#ababab"></stop><stop offset="72%" stop-color="#757575"></stop></linearGradient>
    <linearGradient id="gradient-dynamic-5" gradientUnits="objectBoundingBox" x1="0" y1="0" x2="1" y2="1"><stop offset="22%" stop-color="#ffae00"></stop><stop offset="72%" stop-color="#ac501b"></stop></linearGradient>
    <linearGradient id="gradient-dynamic-6" gradientUnits="objectBoundingBox" x1="0" y1="0" x2="1" y2="1"><stop offset="22%" stop-color="#b0b0b0"></stop><stop offset="72%" stop-color="#878787"></stop></linearGradient>
  </defs><g transform="rotate(0,0,0)"><path stroke-linecap="round" stroke-linejoin="round" d="M-5.537,-11.42 L-5.537,-8.591 L-3.551,-10.006 Z" fill="#7d7d7d"></path><path stroke-linecap="round" stroke-linejoin="round" d="M5.167,-22.733 L-5.537,-11.42 L-3.551,-10.006 L7.153,-21.319 Z" fill="#999999"></path><path stroke-linecap="round" stroke-linejoin="round" d="M12.705,7.177 L10.719,8.591 L-5.537,-8.591 L-3.551,-10.006 Z" fill="#a6a6a6"></path><path stroke-linecap="round" stroke-linejoin="round" d="M23.409,-4.137 L12.705,7.177 L-3.551,-10.006 L7.153,-21.319 Z" fill="url(&quot;#gradient-dynamic-1&quot;)"></path><path stroke-linecap="round" stroke-linejoin="round" d="M5.167,-22.733 L7.843,-22.733 L7.153,-21.319 Z" fill="#bababa"></path><path stroke-linecap="round" stroke-linejoin="round" d="M13.395,8.591 L10.719,8.591 L12.705,7.177 Z" fill="#cfcfcf"></path><path stroke-linecap="round" stroke-linejoin="round" d="M7.843,-22.733 L7.153,-21.319 L23.409,-4.137 L24.099,-5.551 Z" fill="#a6a6a6"></path><path d="M-8.53,9.016 L-10.67,11.278 " stroke="url(&quot;#gradient-dynamic-6&quot;)" stroke-width="8.4"></path><path stroke-linecap="round" stroke-linejoin="round" d="M-11.917,11.278 C-13.366,9.747 -13.947,8.556 -13.246,8.556 C-12.544,8.556 -10.872,9.747 -9.423,11.278 C-7.974,12.81 -7.393,14.001 -8.095,14.001 C-8.796,14.001 -10.469,12.81 -11.917,11.278 " stroke="url(&quot;#gradient-dynamic-6&quot;)" stroke-width="0.7" fill="url(&quot;#gradient-dynamic-6&quot;)"></path><path stroke-linecap="round" stroke-linejoin="round" d="M-9.777,9.016 C-8.328,10.547 -6.655,11.738 -5.954,11.738 C-5.252,11.738 -5.834,10.547 -7.282,9.016 C-8.731,7.484 -10.404,6.293 -11.105,6.293 C-11.807,6.293 -11.225,7.484 -9.777,9.016 " stroke="url(&quot;#gradient-dynamic-6&quot;)" stroke-width="0.7" fill="url(&quot;#gradient-dynamic-6&quot;)"></path><path stroke-linecap="round" stroke-linejoin="round" d="M24.099,-2.722 L13.395,8.591 L12.705,7.177 L23.409,-4.137 Z" fill="#cccccc"></path><path stroke-linecap="round" stroke-linejoin="round" d="M-10.719,-11.42 L-5.537,-11.42 L-5.537,-8.591 L-10.719,-8.591 Z" fill="#a6a6a6"></path><path stroke-linecap="round" stroke-linejoin="round" d="M24.099,-2.722 L24.099,-5.551 L23.409,-4.137 Z" fill="#dedede"></path><path stroke-linecap="round" stroke-linejoin="round" d="M-10.719,-11.42 L-5.537,-11.42 L5.167,-22.733 L-0.016,-22.733 Z" fill="#878787"></path><path d="M6.69,-7.071 L-8.295,8.768 " stroke="url(&quot;#gradient-dynamic-5&quot;)" stroke-width="7.7"></path><path stroke-linecap="round" stroke-linejoin="round" d="M-9.542,8.768 C-10.991,7.237 -11.572,6.046 -10.871,6.046 C-10.169,6.046 -8.497,7.237 -7.048,8.768 C-5.6,10.299 -5.018,11.49 -5.72,11.49 C-6.421,11.49 -8.094,10.299 -9.542,8.768 " fill="url(&quot;#gradient-dynamic-5&quot;)"></path><path stroke-linecap="round" stroke-linejoin="round" d="M5.443,-7.071 C6.892,-5.54 8.564,-4.349 9.265,-4.349 C9.967,-4.349 9.386,-5.54 7.937,-7.071 C6.488,-8.602 4.816,-9.793 4.114,-9.793 C3.413,-9.793 3.994,-8.602 5.443,-7.071 " fill="url(&quot;#gradient-dynamic-5&quot;)"></path><path stroke-linecap="round" stroke-linejoin="round" d="M10.719,8.591 L5.537,8.591 L-10.719,-8.591 L-5.537,-8.591 Z" fill="#878787"></path><path stroke-linecap="round" stroke-linejoin="round" d="M-0.016,-22.733 L5.167,-22.733 L7.843,-22.733 L2.66,-22.733 Z" fill="#c2c2c2"></path><path stroke-linecap="round" stroke-linejoin="round" d="M13.395,8.591 L8.213,8.591 L5.537,8.591 L10.719,8.591 Z" fill="#a6a6a6"></path><path stroke-linecap="round" stroke-linejoin="round" d="M24.099,-5.551 L18.916,-5.551 L2.66,-22.733 L7.843,-22.733 Z" fill="url(&quot;#gradient-dynamic-0&quot;)"></path><path stroke-linecap="round" stroke-linejoin="round" d="M13.395,8.591 L8.213,8.591 L18.916,-2.722 L24.099,-2.722 Z" fill="#878787"></path><path stroke-linecap="round" stroke-linejoin="round" d="M-10.719,-11.42 L-10.719,-8.591 L-10.029,-10.006 Z" fill="#cfcfcf"></path><path stroke-linecap="round" stroke-linejoin="round" d="M24.099,-2.722 L18.916,-2.722 L18.916,-5.551 L24.099,-5.551 Z" fill="#c2c2c2"></path><path stroke-linecap="round" stroke-linejoin="round" d="M-0.016,-22.733 L-10.719,-11.42 L-10.029,-10.006 L0.674,-21.319 Z" fill="#cccccc"></path><path stroke-linecap="round" stroke-linejoin="round" d="M-10.029,-10.006 L-10.719,-8.591 L5.537,8.591 L6.227,7.177 Z" fill="url(&quot;#gradient-dynamic-4&quot;)"></path><path stroke-linecap="round" stroke-linejoin="round" d="M-0.016,-22.733 L2.66,-22.733 L0.674,-21.319 Z" fill="#dedede"></path><path stroke-linecap="round" stroke-linejoin="round" d="M8.213,8.591 L5.537,8.591 L6.227,7.177 Z" fill="#7d7d7d"></path><path stroke-linecap="round" stroke-linejoin="round" d="M0.674,-21.319 L-10.029,-10.006 L6.227,7.177 L16.931,-4.137 Z" fill="url(&quot;#gradient-dynamic-1&quot;)"></path><path stroke-linecap="round" stroke-linejoin="round" d="M5.033,-11.159 L2.978,-8.98 L-1.298,-14.386 L-1.299,-14.385 L-1.377,-14.488 L-1.724,-14.588 L-1.818,-14.518 L-1.78,-14.24 L1.501,-3.611 L1.724,-3.356 L1.966,-3.12 L4.002,-5.318 L8.278,0.088 L8.279,0.086 L8.356,0.189 L8.703,0.289 L8.798,0.218 L8.759,-0.059 L5.571,-11.026 L5.349,-11.282 Z" stroke="url(&quot;#gradient-dynamic-2&quot;)" stroke-width="0.6" fill="url(&quot;#gradient-dynamic-2&quot;)"></path><path stroke-linecap="round" stroke-linejoin="round" d="M18.916,-5.551 L16.931,-4.137 L0.674,-21.319 L2.66,-22.733 Z" fill="url(&quot;#gradient-dynamic-3&quot;)"></path><path stroke-linecap="round" stroke-linejoin="round" d="M18.916,-2.722 L8.213,8.591 L6.227,7.177 L16.931,-4.137 Z" fill="#999999"></path><path stroke-linecap="round" stroke-linejoin="round" d="M18.916,-2.722 L18.916,-5.551 L16.931,-4.137 Z" fill="#bababa"></path></g></svg>