<svg xmlns="http://www.w3.org/2000/svg" class="hammer" width="100" height="100" viewBox="-50 -50 100 100" style="height: 100%; width: 100%; touch-action: none;">
  <defs>
    <linearGradient id="gradient-dynamic-0" gradientUnits="objectBoundingBox" x1="0" y1="0" x2="1" y2="1"><stop offset="22%" stop-color="#bababa"></stop><stop offset="72%" stop-color="#929090"></stop></linearGradient>
    <linearGradient id="gradient-dynamic-1" gradientUnits="objectBoundingBox" x1="0" y1="0" x2="1" y2="1"><stop offset="22%" stop-color="#bdbdbd"></stop><stop offset="72%" stop-color="#8c8c8c"></stop></linearGradient>
    <linearGradient id="gradient-dynamic-2" gradientUnits="objectBoundingBox" x1="0" y1="0" x2="1" y2="1"><stop offset="22%" stop-color="#ffff00"></stop><stop offset="72%" stop-color="#ffc000"></stop></linearGradient>
    <linearGradient id="gradient-dynamic-3" gradientUnits="objectBoundingBox" x1="0" y1="0" x2="1" y2="1"><stop offset="22%" stop-color="#c9c9c9"></stop><stop offset="72%" stop-color="#ababab"></stop></linearGradient>
    <linearGradient id="gradient-dynamic-4" gradientUnits="objectBoundingBox" x1="0" y1="0" x2="1" y2="1"><stop offset="22%" stop-color="#ababab"></stop><stop offset="72%" stop-color="#757575"></stop></linearGradient>
    <linearGradient id="gradient-dynamic-5" gradientUnits="objectBoundingBox" x1="0" y1="0" x2="1" y2="1"><stop offset="22%" stop-color="#ffae00"></stop><stop offset="72%" stop-color="#ac501b"></stop></linearGradient>
    <linearGradient id="gradient-dynamic-6" gradientUnits="objectBoundingBox" x1="0" y1="0" x2="1" y2="1"><stop offset="22%" stop-color="#b0b0b0"></stop><stop offset="72%" stop-color="#878787"></stop></linearGradient>
  </defs><g transform="rotate(0,0,0)"><path stroke-linecap="round" stroke-linejoin="round" d="M-5.537,-11.42 L-5.537,-8.591 L-3.551,-10.006 Z" fill="#7d7d7d"></path><path stroke-linecap="round" stroke-linejoin="round" d="M5.167,-22.733 L-5.537,-11.42 L-3.551,-10.006 L7.153,-21.319 Z" fill="#999999"></path><path stroke-linecap="round" stroke-linejoin="round" d="M12.705,7.177 L10.719,8.591 L-5.537,-8.591 L-3.551,-10.006 Z" fill="#a6a6a6"></path><path stroke-linecap="round" stroke-linejoin="round" d="M23.409,-4.137 L12.705,7.177 L-3.551,-10.006 L7.153,-21.319 Z" fill="url(&quot;#gradient-dynamic-1&quot;)"></path><path stroke-linecap="round" stroke-linejoin="round" d="M5.167,-22.733 L7.843,-22.733 L7.153,-21.319 Z" fill="#bababa"></path><path stroke-linecap="round" stroke-linejoin="round" d="M13.395,8.591 L10.719,8.591 L12.705,7.177 Z" fill="#cfcfcf"></path><path stroke-linecap="round" stroke-linejoin="round" d="M7.843,-22.733 L7.153,-21.319 L23.409,-4.137 L24.099,-5.551 Z" fill="#a6a6a6"></path><path d="M-10.269,10.854 L-12.41,13.117 " stroke="url(&quot;#gradient-dynamic-6&quot;)" stroke-width="8.4"></path><path stroke-linecap="round" stroke-linejoin="round" d="M-13.657,13.117 C-15.105,11.586 -15.687,10.394 -14.985,10.394 C-14.284,10.394 -12.611,11.586 -11.163,13.117 C-9.714,14.648 -9.133,15.839 -9.834,15.839 C-10.536,15.839 -12.208,14.648 -13.657,13.117 " stroke="url(&quot;#gradient-dynamic-6&quot;)" stroke-width="0.7" fill="url(&quot;#gradient-dynamic-6&quot;)"></path><path stroke-linecap="round" stroke-linejoin="round" d="M-11.516,10.854 C-10.067,12.385 -8.395,13.576 -7.693,13.576 C-6.992,13.576 -7.573,12.385 -9.022,10.854 C-10.471,9.323 -12.143,8.132 -12.844,8.132 C-13.546,8.132 -12.965,9.323 -11.516,10.854 " stroke="url(&quot;#gradient-dynamic-6&quot;)" stroke-width="0.7" fill="url(&quot;#gradient-dynamic-6&quot;)"></path><path stroke-linecap="round" stroke-linejoin="round" d="M24.099,-2.722 L13.395,8.591 L12.705,7.177 L23.409,-4.137 Z" fill="#cccccc"></path><path stroke-linecap="round" stroke-linejoin="round" d="M-10.719,-11.42 L-5.537,-11.42 L-5.537,-8.591 L-10.719,-8.591 Z" fill="#a6a6a6"></path><path stroke-linecap="round" stroke-linejoin="round" d="M24.099,-2.722 L24.099,-5.551 L23.409,-4.137 Z" fill="#dedede"></path><path stroke-linecap="round" stroke-linejoin="round" d="M-10.719,-11.42 L-5.537,-11.42 L5.167,-22.733 L-0.016,-22.733 Z" fill="#878787"></path><path d="M6.69,-7.071 L-10.035,10.607 " stroke="url(&quot;#gradient-dynamic-5&quot;)" stroke-width="7.7"></path><path stroke-linecap="round" stroke-linejoin="round" d="M-11.282,10.607 C-12.731,9.075 -13.312,7.884 -12.61,7.884 C-11.909,7.884 -10.236,9.075 -8.788,10.607 C-7.339,12.138 -6.758,13.329 -7.459,13.329 C-8.161,13.329 -9.833,12.138 -11.282,10.607 " fill="url(&quot;#gradient-dynamic-5&quot;)"></path><path stroke-linecap="round" stroke-linejoin="round" d="M5.443,-7.071 C6.892,-5.54 8.564,-4.349 9.265,-4.349 C9.967,-4.349 9.386,-5.54 7.937,-7.071 C6.488,-8.602 4.816,-9.793 4.114,-9.793 C3.413,-9.793 3.994,-8.602 5.443,-7.071 " fill="url(&quot;#gradient-dynamic-5&quot;)"></path><path stroke-linecap="round" stroke-linejoin="round" d="M10.719,8.591 L5.537,8.591 L-10.719,-8.591 L-5.537,-8.591 Z" fill="#878787"></path><path stroke-linecap="round" stroke-linejoin="round" d="M-0.016,-22.733 L5.167,-22.733 L7.843,-22.733 L2.66,-22.733 Z" fill="#c2c2c2"></path><path stroke-linecap="round" stroke-linejoin="round" d="M13.395,8.591 L8.213,8.591 L5.537,8.591 L10.719,8.591 Z" fill="#a6a6a6"></path><path stroke-linecap="round" stroke-linejoin="round" d="M24.099,-5.551 L18.916,-5.551 L2.66,-22.733 L7.843,-22.733 Z" fill="url(&quot;#gradient-dynamic-0&quot;)"></path><path stroke-linecap="round" stroke-linejoin="round" d="M13.395,8.591 L8.213,8.591 L18.916,-2.722 L24.099,-2.722 Z" fill="#878787"></path><path stroke-linecap="round" stroke-linejoin="round" d="M-10.719,-11.42 L-10.719,-8.591 L-10.029,-10.006 Z" fill="#cfcfcf"></path><path stroke-linecap="round" stroke-linejoin="round" d="M24.099,-2.722 L18.916,-2.722 L18.916,-5.551 L24.099,-5.551 Z" fill="#c2c2c2"></path><path stroke-linecap="round" stroke-linejoin="round" d="M-0.016,-22.733 L-10.719,-11.42 L-10.029,-10.006 L0.674,-21.319 Z" fill="#cccccc"></path><path stroke-linecap="round" stroke-linejoin="round" d="M-10.029,-10.006 L-10.719,-8.591 L5.537,8.591 L6.227,7.177 Z" fill="url(&quot;#gradient-dynamic-4&quot;)"></path><path stroke-linecap="round" stroke-linejoin="round" d="M-0.016,-22.733 L2.66,-22.733 L0.674,-21.319 Z" fill="#dedede"></path><path stroke-linecap="round" stroke-linejoin="round" d="M8.213,8.591 L5.537,8.591 L6.227,7.177 Z" fill="#7d7d7d"></path><path stroke-linecap="round" stroke-linejoin="round" d="M0.674,-21.319 L-10.029,-10.006 L6.227,7.177 L16.931,-4.137 Z" fill="url(&quot;#gradient-dynamic-1&quot;)"></path><path stroke-linecap="round" stroke-linejoin="round" d="M5.033,-11.159 L2.978,-8.98 L-1.298,-14.386 L-1.299,-14.385 L-1.377,-14.488 L-1.724,-14.588 L-1.818,-14.518 L-1.78,-14.24 L1.501,-3.611 L1.724,-3.356 L1.966,-3.12 L4.002,-5.318 L8.278,0.088 L8.279,0.086 L8.356,0.189 L8.703,0.289 L8.798,0.218 L8.759,-0.059 L5.571,-11.026 L5.349,-11.282 Z" stroke="url(&quot;#gradient-dynamic-2&quot;)" stroke-width="0.6" fill="url(&quot;#gradient-dynamic-2&quot;)"></path><path stroke-linecap="round" stroke-linejoin="round" d="M18.916,-5.551 L16.931,-4.137 L0.674,-21.319 L2.66,-22.733 Z" fill="url(&quot;#gradient-dynamic-3&quot;)"></path><path stroke-linecap="round" stroke-linejoin="round" d="M18.916,-2.722 L8.213,8.591 L6.227,7.177 L16.931,-4.137 Z" fill="#999999"></path><path stroke-linecap="round" stroke-linejoin="round" d="M18.916,-2.722 L18.916,-5.551 L16.931,-4.137 Z" fill="#bababa"></path></g></svg>