<svg width="2e3" height="5e3" fill="none" version="1.1" viewBox="0 0 2e3 5e3" xmlns="http://www.w3.org/2000/svg" xmlns:xlink="http://www.w3.org/1999/xlink">
<defs>
<linearGradient id="linearGradient8869" x1="194.65" x2="236.08" y1="8.8182" y2="292.99" gradientTransform="matrix(.65974 -.5214 .74328 .83429 -19.212 521.82)" gradientUnits="userSpaceOnUse">
<stop stop-color="#FFEA83" offset="0"/>
<stop stop-color="#FFDD35" offset=".083333"/>
<stop stop-color="#FFA800" offset="1"/>
</linearGradient>
<linearGradient id="paint1_linear" x1="194.65" x2="236.08" y1="8.8182" y2="292.99" gradientTransform="translate(39.821 124.87)" gradientUnits="userSpaceOnUse">
<stop stop-color="#FFEA83" offset="0"/>
<stop stop-color="#FFDD35" offset=".083333"/>
<stop stop-color="#FFA800" offset="1"/>
</linearGradient>
<linearGradient id="linearGradient1183" x1="194.65" x2="236.08" y1="8.8182" y2="292.99" gradientTransform="matrix(.83212 -.65763 .93749 1.0523 309.76 760.21)" gradientUnits="userSpaceOnUse" xlink:href="#linearGradient8869"/>
<linearGradient id="linearGradient1183-3" x1="194.65" x2="236.08" y1="8.8182" y2="292.99" gradientTransform="matrix(1.0602 .031104 .041767 1.4087 23.722 538.12)" gradientUnits="userSpaceOnUse" xlink:href="#linearGradient8869"/>
</defs>
<path d="m558.6 620.56-45.386 71.07c-1.4513 1.9332-1.052 5.0188 0.9695 7.5027l55.347 114.2c2.9598 3.6358 7.9305 4.3446 9.9332 1.4169l31.041-38.415c2.1846-3.1933 7.7802-2.0138 10.518 2.2192l29.592 79.125c2.8492 4.4047 8.7249 5.4529 10.709 1.9103l20.33-25.211c1.9874-3.5468 7.8738-2.4912 10.718 1.9232l58.628 107.21c4.1482 6.439 28.309-3.7445 26.455-10.61l-1.2381-4.5857-120.99-277.97c-1.9299-5.1232-8.5589-7.4649-11.211-3.9598l-33.25 50.619c-2.3885 3.1556-8.1864 1.6138-10.688-2.8422l-30.78-70.782c-2.5069-4.463-8.3166-6.0006-10.697-2.8296z" fill="url(#linearGradient1183)"/>
<path d="m304.11 591.1-80.451 25.269c-2.3544 0.54809-4.0319 3.1684-4.08 6.3706l-31.011 123.06c-0.0696 4.6877 3.2824 8.4258 6.6985 7.4704l48.471-9.4747c3.7261-1.042 7.2544 3.4584 6.6307 8.4607l-28.192 79.635c-0.64866 5.2056 3.1786 9.7854 6.9757 8.3469l31.779-6.2451c3.8023-1.4395 7.633 3.1528 6.974 8.3625l-24.002 119.81c-0.96123 7.599 24.093 15.328 27.086 8.8771l1.9992-4.3087 85.991-290.7c1.8148-5.1651-1.7582-11.22-6.0425-10.239l-58.008 17.403c-3.8581 0.882-7.3085-4.0259-6.361-9.0477l21.919-74.007c0.94834-5.0302-2.5137-9.9425-6.3757-9.0437z" fill="url(#linearGradient1183-3)"/>
<path d="m332.79 126.44-136.16 26.681c-2.238 0.4385-3.895 2.3351-4.03 4.6112l-8.376 141.46c-0.197 3.332 2.863 5.918 6.115 5.168l37.91-8.749c3.547-0.818 6.752 2.306 6.023 5.873l-11.263 55.153c-0.758 3.712 2.727 6.886 6.352 5.785l23.415-7.114c3.63-1.102 7.118 2.081 6.35 5.796l-17.899 86.633c-1.12 5.419 6.088 8.374 9.094 3.728l2.008-3.103 110.95-221.43c1.858-3.7075-1.346-7.935-5.418-7.1492l-39.022 7.5312c-3.667 0.707-6.787-2.708-5.752-6.2957l25.469-88.291c1.036-3.5938-2.095-7.0117-5.766-6.2925z" fill="url(#paint1_linear)"/>
</svg>
