<svg xmlns="http://www.w3.org/2000/svg" class="hammer" width="100" height="100" viewBox="-50 -50 100 100" style="height: 100%; width: 100%; touch-action: none;">
  <defs>
    <linearGradient id="gradient-dynamic-14" gradientUnits="objectBoundingBox" x1="0" y1="0" x2="1" y2="1"><stop offset="22%" stop-color="#cfcfcf"></stop><stop offset="72%" stop-color="#a8a8a8"></stop></linearGradient>
    <linearGradient id="gradient-dynamic-15" gradientUnits="objectBoundingBox" x1="0" y1="0" x2="1" y2="1"><stop offset="22%" stop-color="#d6d6d6"></stop><stop offset="72%" stop-color="#b5b5b5"></stop></linearGradient>
    <linearGradient id="gradient-dynamic-16" gradientUnits="objectBoundingBox" x1="0" y1="0" x2="1" y2="1"><stop offset="35%" stop-color="#ffff00"></stop><stop offset="80%" stop-color="#ffc300"></stop></linearGradient>
    <linearGradient id="gradient-dynamic-17" gradientUnits="objectBoundingBox" x1="0" y1="0" x2="1" y2="1"><stop offset="22%" stop-color="#e0e0e0"></stop><stop offset="72%" stop-color="#cccccc"></stop></linearGradient>
    <linearGradient id="gradient-dynamic-18" gradientUnits="objectBoundingBox" x1="0" y1="0" x2="1" y2="1"><stop offset="22%" stop-color="#b8b8b8"></stop><stop offset="72%" stop-color="#7d7d7d"></stop></linearGradient>
  </defs><g transform="rotate(0,0,0)"><path stroke-linecap="round" stroke-linejoin="round" d="M-4.868,-10.713 L-4.5,-8.202 L-2.832,-9.263 Z" fill="#7d7d7d"></path><path stroke-linecap="round" stroke-linejoin="round" d="M5.836,-22.026 L-4.868,-10.713 L-2.832,-9.263 L7.871,-20.577 Z" fill="#a3a3a3"></path><path stroke-linecap="round" stroke-linejoin="round" d="M12.019,6.435 L9.984,7.884 L-5.236,-8.202 L-3.2,-9.652 Z" fill="#a3a3a3"></path><path stroke-linecap="round" stroke-linejoin="round" d="M23.091,-4.49 L12.387,6.824 L-2.832,-9.263 L7.871,-20.577 Z" fill="#a3a3a3"></path><path stroke-linecap="round" stroke-linejoin="round" d="M5.836,-22.026 L8.579,-22.026 L7.871,-20.577 Z" fill="#dcdbdb"></path><path stroke-linecap="round" stroke-linejoin="round" d="M7.843,-22.026 L7.325,-20.966 L22.913,-4.49 L23.43,-5.551 Z" fill="#a3a3a3"></path><path stroke-linecap="round" stroke-linejoin="round" d="M-10.051,-10.713 L-4.868,-10.713 L-4.868,-8.591 L-10.051,-8.591 Z" fill="#a3a3a3"></path><path stroke-linecap="round" stroke-linejoin="round" d="M-10.051,-10.713 L-4.868,-10.713 L5.836,-22.026 L0.653,-22.026 Z" fill="#a3a3a3"></path><path stroke-linecap="round" stroke-linejoin="round" d="M10.352,7.495 L5.169,7.495 L-10.051,-8.591 L-4.868,-8.591 Z" fill="#a3a3a3"></path><path stroke-linecap="round" stroke-linejoin="round" d="M0.653,-22.026 L5.836,-22.026 L8.579,-22.026 L3.396,-22.026 Z" fill="#dcdbdb"></path><path stroke-linecap="round" stroke-linejoin="round" d="M23.43,-6.329 L18.247,-6.329 L3.028,-22.415 L8.211,-22.415 Z" fill="url(&quot;#gradient-dynamic-14&quot;)"></path><path stroke-linecap="round" stroke-linejoin="round" d="M12.726,7.884 L7.544,7.884 L18.247,-3.429 L23.43,-3.429 Z" fill="#ababab"></path><path stroke-linecap="round" stroke-linejoin="round" d="M-10.051,-10.713 L-10.051,-8.591 L-9.533,-9.652 Z" fill="#d6d6d6"></path><path stroke-linecap="round" stroke-linejoin="round" d="M23.43,-3.429 L18.247,-3.429 L18.247,-6.329 L23.43,-6.329 Z" fill="#dcdbdb"></path><path stroke-linecap="round" stroke-linejoin="round" d="M0.653,-22.026 L-10.051,-10.713 L-9.533,-9.652 L1.171,-20.966 Z" fill="#d6d6d6"></path><path stroke-linecap="round" stroke-linejoin="round" d="M-9.711,-9.652 L-10.051,-8.591 L5.169,7.495 L5.508,6.435 Z" fill="url(&quot;#gradient-dynamic-18&quot;)"></path><path stroke-linecap="round" stroke-linejoin="round" d="M0.653,-22.026 L3.028,-22.415 L0.993,-20.966 Z" fill="#dedede"></path><path stroke-linecap="round" stroke-linejoin="round" d="M7.544,7.884 L5.169,7.495 L5.508,6.435 Z" fill="#7d7d7d"></path><path stroke-linecap="round" stroke-linejoin="round" d="M0.993,-20.966 L-9.711,-9.652 L5.508,6.435 L16.212,-4.879 Z" fill="url(&quot;#gradient-dynamic-15&quot;)"></path><path stroke-linecap="round" stroke-linejoin="round" d="M4.657,-10.799 L2.83,-8.862 L-0.97,-13.668 L-0.971,-13.667 L-1.04,-13.758 L-1.349,-13.847 L-1.433,-13.784 L-1.399,-13.537 L1.518,-4.09 L1.716,-3.863 L1.931,-3.653 L3.741,-5.607 L7.542,-0.802 L7.542,-0.804 L7.611,-0.712 L7.92,-0.623 L8.004,-0.686 L7.97,-0.933 L5.136,-10.681 L4.938,-10.908 Z" stroke="url(&quot;#gradient-dynamic-16&quot;)" stroke-width="0.6" fill="url(&quot;#gradient-dynamic-16&quot;)"></path><path stroke-linecap="round" stroke-linejoin="round" d="M18.247,-6.329 L16.212,-4.879 L0.993,-20.966 L3.028,-22.415 Z" fill="url(&quot;#gradient-dynamic-17&quot;)"></path><path stroke-linecap="round" stroke-linejoin="round" d="M18.247,-3.429 L7.544,7.884 L5.508,6.435 L16.212,-4.879 Z" fill="#a3a3a3"></path><path stroke-linecap="round" stroke-linejoin="round" d="M18.247,-3.429 L18.247,-6.329 L16.212,-4.879 Z" fill="#dcdbdb"></path></g></svg>