<svg width="48" height="48" viewBox="0 0 48 48" fill="none" xmlns="http://www.w3.org/2000/svg">
<g clip-path="url(#clip0_11_95)">
<rect width="48" height="48" fill="white"/>
<path d="M3.26782 43.3293C1.46416 41.4081 0.883103 39.9914 1.94019 40.0907C2.99613 40.1912 5.22102 41.7642 7.02469 43.6855C8.82835 45.6067 9.4094 47.0234 8.35346 46.9241C7.29638 46.8236 5.07148 45.2505 3.26782 43.3293Z" fill="#A6A6A6"/>
<path fill-rule="evenodd" clip-rule="evenodd" d="M9.3032 47.0814C9.06524 47.46 8.62646 47.5231 8.30003 47.4924C7.93268 47.4574 7.52097 47.3044 7.11242 47.1013C6.69373 46.8931 6.23458 46.6102 5.76115 46.2756C4.8141 45.6061 3.77818 44.7069 2.8517 43.72C1.9369 42.7455 1.2822 41.8495 1.00313 41.1688C0.87571 40.8581 0.758175 40.4325 0.926247 40.0533C0.992433 39.904 1.08497 39.7932 1.19181 39.7122L3.33312 37.3611L11.4353 44.7404L9.3032 47.0814Z" fill="url(#paint0_linear_11_95)"/>
<path d="M5.50533 40.8727C3.70167 38.9514 3.12062 37.5348 4.17656 37.6352C5.23364 37.7357 7.45854 39.3076 9.2622 41.2288C11.0659 43.1512 11.6469 44.5679 10.591 44.4674C9.53389 44.367 7.309 42.7951 5.50533 40.8727Z" stroke="url(#paint1_linear_11_95)" stroke-width="1.14156" stroke-linecap="round" stroke-linejoin="round"/>
<path fill-rule="evenodd" clip-rule="evenodd" d="M11.3021 43.8373C11.2325 43.9772 11.0725 44.0423 10.8161 44.0182C9.76012 43.9178 7.53522 42.3447 5.73156 40.4235C4.20753 38.8011 3.55611 37.5385 4.02682 37.2455L11.7364 28.7812L18.9944 35.3921L11.3021 43.8373Z" fill="url(#paint2_linear_11_95)"/>
<path d="M13.4874 31.9086C15.2911 33.831 17.5159 35.4029 18.5719 35.5034C19.629 35.6038 19.0479 34.1871 17.2443 32.2648C15.4406 30.3435 13.2157 28.7716 12.1586 28.6711C11.1027 28.5707 11.6837 29.9874 13.4874 31.9086Z" fill="#A56C4A"/>
<path fill-rule="evenodd" clip-rule="evenodd" d="M19.4784 35.2855C19.3241 35.548 19.0212 35.6103 18.7325 35.5832L18.7322 35.5831C18.4164 35.5531 18.0422 35.4181 17.6452 35.2207C17.2431 35.0208 16.7968 34.7463 16.3316 34.4175C15.4012 33.7598 14.3796 32.8733 13.4655 31.8996C12.5572 30.9321 11.9318 30.0668 11.6728 29.4357C11.5494 29.135 11.4755 28.8084 11.5923 28.5446C11.6387 28.4399 11.7054 28.3617 11.7852 28.305L13.9479 25.9292L21.6298 32.9222L19.4784 35.2855Z" fill="url(#paint3_linear_11_95)"/>
<path d="M15.911 29.2488C17.7146 31.17 19.9395 32.7419 20.9966 32.8424C22.0526 32.9428 21.4715 31.5262 19.6678 29.6038C17.8642 27.6825 15.6393 26.1106 14.5822 26.0102C13.5263 25.9097 14.1073 27.3264 15.911 29.2488Z" fill="#9E9E9E" stroke="#9E9E9E" stroke-width="0.570779" stroke-linecap="round" stroke-linejoin="round"/>
<path d="M47.1546 24.16L40.5594 23.5398L18.9326 0.500885L26.8899 3.44878L47.1546 24.16Z" fill="url(#paint4_linear_11_95)"/>
<path d="M15.3848 0.977972L3.45326 14.0774L3.45203 15.9325L15.3847 2.83309L15.3848 0.977972Z" fill="#E2E1E1"/>
<path d="M35.8434 40.6427L28.6281 41.4783L40.5596 28.3789L47.1572 28.9908L35.8434 40.6427Z" fill="#B6B6B6"/>
<path d="M15.3846 0.98248L18.9326 0.500885L15.3846 2.83309V0.98248Z" fill="#E5E5E5"/>
<path d="M3.45203 15.9325L3.45324 17.946L25.0801 40.9849L25.08 38.9714L3.45203 15.9325Z" fill="#8B8A8B"/>
<path d="M15.3847 2.8331L3.45203 15.9325L25.08 38.9714L37.0116 25.872L15.3847 2.8331Z" fill="url(#paint5_linear_11_95)"/>
<path d="M26.7705 17.5466L21.9132 14.0934C21.8333 14.0375 21.7271 14.0466 21.6552 14.1162L17.1848 18.4827C17.0798 18.5866 17.0946 18.7681 17.2134 18.8469L18.6049 19.7647C18.7362 19.8514 18.7385 20.0546 18.6095 20.1482L16.6289 21.5969C16.4953 21.6939 16.5045 21.9097 16.646 21.9884L17.5558 22.4998C17.6974 22.5786 17.7065 22.7932 17.573 22.8914L14.4542 25.1597C14.259 25.3012 14.3869 25.6266 14.6152 25.5706L14.767 25.533L24.6826 21.8069C24.8481 21.7441 24.8789 21.5044 24.734 21.4005L23.3447 20.4074C23.2145 20.3138 23.2237 20.1026 23.3618 20.0181L26.7545 17.9359C26.8926 17.8514 26.9018 17.6402 26.7705 17.5466Z" fill="url(#paint6_linear_11_95)"/>
<path d="M28.6279 41.4783L25.0799 40.996L25.08 38.9714L28.6279 41.4783Z" fill="#939493"/>
<path d="M40.5594 23.5398L37.0115 25.872L15.3846 2.83309L18.9326 0.500885L40.5594 23.5398Z" fill="url(#paint7_linear_11_95)"/>
<path d="M40.5595 28.3789L28.6279 41.4783L25.08 38.9714L37.0115 25.872L40.5595 28.3789Z" fill="#9B9B9B"/>
<path d="M40.5596 28.3789V23.5398L37.0116 25.872L40.5596 28.3789Z" fill="#A7A6A7"/>
<path opacity="0.5" fill-rule="evenodd" clip-rule="evenodd" d="M26.8705 17.7338C26.8705 17.7968 26.8273 17.8898 26.7735 17.9228L23.3563 20.0145C23.3473 20.0232 23.3353 20.0354 23.3226 20.0498C23.2937 20.0827 23.2699 20.1175 23.2608 20.1451C23.2324 20.2312 23.2589 20.3281 23.2998 20.3766L24.7054 21.3803L24.711 21.3856C24.7239 21.3978 24.7503 21.4089 24.7616 21.4225C24.7773 21.4414 24.832 21.5028 24.8281 21.5854C24.8242 21.668 24.7936 21.7619 24.711 21.793L14.7695 25.5273C14.7105 25.5495 14.5703 25.5977 14.5156 25.5703C14.4609 25.543 14.3867 25.5156 14.3867 25.4609L24.5829 21.5854C24.5801 21.581 24.5762 21.5759 24.5718 21.5706C24.567 21.5649 24.5624 21.5599 24.559 21.5563C24.559 21.5563 23.1513 20.5117 23.1227 20.4919C23.0941 20.4722 23.0439 20.4062 23.025 20.3108C23.0204 20.2469 23.0184 20.1511 23.0439 20.0736C23.0677 20.0015 23.1162 19.9386 23.1513 19.8988C23.1699 19.8777 23.1872 19.8603 23.2 19.8481C23.2064 19.842 23.2118 19.837 23.2156 19.8335L23.2204 19.8293L23.2218 19.828L23.2226 19.8274C23.2336 19.818 23.246 19.8109 23.2589 19.8064L26.8015 17.6175C26.8552 17.5844 26.8705 17.6708 26.8705 17.7338Z" fill="white"/>
<path opacity="0.3" d="M40.5884 28.2531L37.1145 25.8151" stroke="white" stroke-width="0.228312" stroke-linecap="round"/>
<path d="M47.1532 28.9933L40.5594 28.3789V23.5398L47.1532 24.1531V28.9933Z" fill="#F2F2F2"/>
<path d="M28.2045 10.4043L34.0012 22.7003L37.0195 25.875L40.5883 23.5493L28.2045 10.4043Z" fill="url(#paint8_linear_11_95)"/>
<path fill-rule="evenodd" clip-rule="evenodd" d="M4.11721 37.1562C4.11721 37.3555 4.13234 37.3963 4.18738 37.601C4.23178 37.7661 4.32007 38.0178 4.49535 38.3493C4.84598 39.0123 5.54528 39.9953 6.93878 41.2416C8.33343 42.489 9.40993 43.1322 10.1314 43.4633C10.4921 43.6288 10.7643 43.7164 10.9434 43.7624C11.033 43.7854 11.0994 43.7981 11.142 43.8049C11.2116 43.816 11.2647 43.8112 11.3265 43.8112C11.2812 43.8867 11.155 44.0385 11.1016 44.0941C11.0482 44.1497 10.9029 44.1093 10.8438 44.0941C10.6441 44.0428 10.3671 43.9483 9.98857 43.7746C9.23147 43.4272 8.12669 42.7635 6.71047 41.4969C5.29311 40.2292 4.56584 39.2151 4.19262 38.5094C4.00597 38.1564 3.90802 37.8809 3.85666 37.6899C3.83098 37.5944 3.82797 37.5716 3.82035 37.5195C3.80003 37.3804 3.99022 37.2292 4.11721 37.1562Z" fill="#E4E4E4"/>
</g>
<defs>
<linearGradient id="paint0_linear_11_95" x1="1.70575" y1="39.2391" x2="9.71101" y2="46.5703" gradientUnits="userSpaceOnUse">
<stop stop-color="#C4C4C4"/>
<stop offset="0.25" stop-color="#F8F8F8"/>
<stop offset="0.467629" stop-color="#A6A6A6"/>
<stop offset="0.68" stop-color="#B8B8B8"/>
<stop offset="1" stop-color="#A9AAA9"/>
</linearGradient>
<linearGradient id="paint1_linear_11_95" x1="3.263" y1="37.5178" x2="11.083" y2="45.0733" gradientUnits="userSpaceOnUse">
<stop stop-color="#C4C4C4"/>
<stop offset="0.257541" stop-color="#F8F8F8"/>
<stop offset="0.468637" stop-color="#A6A6A6"/>
<stop offset="0.679224" stop-color="#B8B8B8"/>
<stop offset="1" stop-color="#A9AAA9"/>
</linearGradient>
<linearGradient id="paint2_linear_11_95" x1="8.139" y1="33.6061" x2="14.9884" y2="39.8848" gradientUnits="userSpaceOnUse">
<stop stop-color="#A67333"/>
<stop offset="0.235" stop-color="#AE7C3F"/>
<stop offset="0.47" stop-color="#C6832F"/>
<stop offset="0.715" stop-color="#EF9F3D"/>
<stop offset="1" stop-color="#ED9C3A"/>
</linearGradient>
<linearGradient id="paint3_linear_11_95" x1="11.5337" y1="28.4477" x2="18.2924" y2="35.589" gradientUnits="userSpaceOnUse">
<stop stop-color="#D5D5D4"/>
<stop offset="0.49" stop-color="#7D7E7C"/>
<stop offset="1" stop-color="#838283"/>
</linearGradient>
<linearGradient id="paint4_linear_11_95" x1="24.6915" y1="0.500886" x2="45.8104" y2="24.4736" gradientUnits="userSpaceOnUse">
<stop stop-color="#AFAFAF"/>
<stop offset="1" stop-color="#BFBEBF"/>
</linearGradient>
<linearGradient id="paint5_linear_11_95" x1="16.7008" y1="5.63791" x2="27.5456" y2="35.8892" gradientUnits="userSpaceOnUse">
<stop stop-color="#BABAB9"/>
<stop offset="1" stop-color="#8F8F8F"/>
</linearGradient>
<linearGradient id="paint6_linear_11_95" x1="26.4038" y1="17.6242" x2="13.8467" y2="22.7613" gradientUnits="userSpaceOnUse">
<stop stop-color="#FBCC56"/>
<stop offset="1" stop-color="#FEAD01"/>
</linearGradient>
<linearGradient id="paint7_linear_11_95" x1="18.413" y1="0.500885" x2="38.3903" y2="23.332" gradientUnits="userSpaceOnUse">
<stop stop-color="#E4E3E4"/>
<stop offset="1" stop-color="#ADADAC"/>
</linearGradient>
<linearGradient id="paint8_linear_11_95" x1="34.3964" y1="10.4043" x2="34.3964" y2="25.8914" gradientUnits="userSpaceOnUse">
<stop stop-color="#C3C3C3"/>
<stop offset="1" stop-color="#AAAAA9"/>
</linearGradient>
<clipPath id="clip0_11_95">
<rect width="48" height="48" fill="white"/>
</clipPath>
</defs>
</svg>
