<svg xmlns="http://www.w3.org/2000/svg" version="1.1" viewBox="-5.0 -10.0 110.0 135.0">
 <path d="m16.953 58.102 30.953-55.746c0.35938-0.79688 1.1602-1.3555 2.0938-1.3555 1.2695 0 2.2969 1.0273 2.2969 2.2969v35.191h28.75v0.007813c0.37891 0 0.75781 0.09375 1.1133 0.28906 1.1055 0.61328 1.5039 2.0078 0.88672 3.1133l-30.953 55.746c-0.35938 0.79688-1.1602 1.3555-2.0938 1.3555-1.2695 0-2.2969-1.0273-2.2969-2.2969v-35.191h-28.75v-0.007813c-0.37891 0-0.75781-0.09375-1.1133-0.28906-1.1055-0.61328-1.5039-2.0078-0.88672-3.1133z"/>
<text x="0.0" y="117.5" font-size="5.0" font-weight="bold" font-family="Arbeit Regular, Helvetica, Arial-Unicode, Arial, Sans-serif" fill="#000000">Created by UNKNOWN</text><text x="0.0" y="122.5" font-size="5.0" font-weight="bold" font-family="Arbeit Regular, Helvetica, Arial-Unicode, Arial, Sans-serif" fill="#000000">from Noun Project</text></svg>