<svg xmlns="http://www.w3.org/2000/svg" version="1.1" viewBox="-5.0 -10.0 110.0 135.0">
 <path d="m61.211 46h-8.3984l5-17.641h-0.003906c0.10156-0.32812-0.050782-0.67969-0.35938-0.83203-0.30859-0.15234-0.67969-0.058594-0.87891 0.22266l-18.391 25c-0.26563 0.20703-0.35156 0.57031-0.20313 0.875 0.14844 0.30078 0.48828 0.45703 0.8125 0.375h8.3984l-5 17.641h0.003906c-0.10156 0.32812 0.050782 0.67969 0.35938 0.83203 0.30859 0.15234 0.67969 0.058594 0.87891-0.22266l18.391-25c0.26563-0.20703 0.35156-0.57031 0.20313-0.875-0.14844-0.30078-0.48828-0.45703-0.8125-0.375z"/>
<text x="0.0" y="117.5" font-size="5.0" font-weight="bold" font-family="Arbeit Regular, Helvetica, Arial-Unicode, Arial, Sans-serif" fill="#000000">Created by hibernut</text><text x="0.0" y="122.5" font-size="5.0" font-weight="bold" font-family="Arbeit Regular, Helvetica, Arial-Unicode, Arial, Sans-serif" fill="#000000">from Noun Project</text></svg>