<svg xmlns="http://www.w3.org/2000/svg" version="1.1" viewBox="-5.0 -10.0 110.0 135.0">
 <path d="m42.219 28.352-3.6797 22.34c-0.054687 0.29297 0.027344 0.59766 0.22266 0.82422 0.19141 0.23047 0.48047 0.35938 0.77734 0.35547h8c0.3125-0.007813 0.60938 0.125 0.80469 0.36719 0.19531 0.24219 0.26953 0.55859 0.19531 0.86328l-4.0781 18.59c-0.078126 0.31641 0.089843 0.64062 0.39453 0.76562 0.30078 0.12109 0.64844 0.003907 0.81641-0.27734l15.656-25.809c0.19531-0.3125 0.20312-0.70703 0.023437-1.0273-0.18359-0.31641-0.52344-0.51172-0.89062-0.50391h-7.5703c-0.33594 0.019531-0.65625-0.12891-0.85547-0.39844-0.20312-0.26562-0.25781-0.61719-0.14453-0.92969l4.9102-14.684c0.10938-0.3125 0.054688-0.66406-0.14453-0.92969-0.20312-0.26953-0.52344-0.41797-0.85547-0.39844h-12.582c-0.49609-0.003906-0.92578 0.35547-1 0.85156z"/>
<text x="0.0" y="117.5" font-size="5.0" font-weight="bold" font-family="Arbeit Regular, Helvetica, Arial-Unicode, Arial, Sans-serif" fill="#000000">Created by hibernut</text><text x="0.0" y="122.5" font-size="5.0" font-weight="bold" font-family="Arbeit Regular, Helvetica, Arial-Unicode, Arial, Sans-serif" fill="#000000">from Noun Project</text></svg>