<svg width="42.653mm" height="15.245mm" version="1.1" viewBox="0 0 42.653 15.245" xmlns="http://www.w3.org/2000/svg">
<g transform="translate(-43.2 -53.241)" stop-color="#000000" stroke-dashoffset="60.8" stroke-linecap="square" stroke-width=".26458" style="paint-order:markers fill stroke" aria-label="Vike">
<path d="m48.915 68.486-5.7154-14.821h2.2738l4.6095 12.196 4.6199-12.196h2.2634l-5.7154 14.821z"/>
<path d="m61.431 57.479v11.007h-2.0361v-11.007zm-2.1394-4.2375h2.2428v2.1187h-2.2428z"/>
<path d="m72.2 68.486-5.2503-4.7026v4.7026h-2.0257v-15.245h2.0257v8.5783l4.8266-4.3408h2.8629l-5.9118 5.3123 6.3355 5.6948z"/>
<path d="m85.853 64.021h-7.2864v2.4288h7.2864v2.0361h-7.2864q-0.41341 0-0.78548-0.15503-0.37207-0.16536-0.65112-0.43408-0.26872-0.27905-0.43408-0.65112-0.15503-0.37207-0.15503-0.79582v-6.935q0-0.42375 0.15503-0.79582 0.16536-0.37207 0.43408-0.64079 0.27905-0.27905 0.65112-0.43408 0.37207-0.16536 0.78548-0.16536h5.2503q0.42375 0 0.79582 0.16536 0.37207 0.15503 0.64079 0.43408 0.27905 0.26872 0.43408 0.64079 0.16536 0.37207 0.16536 0.79582zm-7.2864-4.5062v2.4701h5.2503v-2.4701z"/>
</g>
</svg>
