<svg xmlns="http://www.w3.org/2000/svg" class="hammer" width="100" height="100" viewBox="-50 -50 100 100" style="height: 100%; width: 100%; touch-action: none;">
  <defs>
    <linearGradient id="gradient-dynamic-0" gradientUnits="objectBoundingBox" gradientTransform="rotate(45)"><stop offset="30%" stop-color="#cfcfcf"></stop><stop offset="100%" stop-color="#a8a8a8"></stop></linearGradient>
    <linearGradient id="gradient-dynamic-1" gradientUnits="objectBoundingBox" gradientTransform="rotate(45)"><stop offset="30%" stop-color="#d6d6d6"></stop><stop offset="100%" stop-color="#b0afaf"></stop></linearGradient>
    <linearGradient id="gradient-dynamic-2" gradientUnits="objectBoundingBox" gradientTransform="rotate(45)"><stop offset="30%" stop-color="#ffe507"></stop><stop offset="100%" stop-color="#ffc212"></stop></linearGradient>
    <linearGradient id="gradient-dynamic-3" gradientUnits="objectBoundingBox" gradientTransform="rotate(45)"><stop offset="30%" stop-color="#e6e6e6"></stop><stop offset="100%" stop-color="#c4c4c4"></stop></linearGradient>
    <linearGradient id="gradient-dynamic-4" gradientUnits="objectBoundingBox" gradientTransform="rotate(45)"><stop offset="30%" stop-color="#b8b8b8"></stop><stop offset="100%" stop-color="#8a8a8a"></stop></linearGradient>
    <linearGradient id="gradient-dynamic-5" gradientUnits="objectBoundingBox" gradientTransform="rotate(45)"><stop offset="30%" stop-color="#ffb152"></stop><stop offset="100%" stop-color="#aa5422"></stop></linearGradient>
    <linearGradient id="gradient-dynamic-6" gradientUnits="objectBoundingBox" gradientTransform="rotate(45)"><stop offset="30%" stop-color="#d6d6d6"></stop><stop offset="100%" stop-color="#949494"></stop></linearGradient>
  </defs><path stroke-linecap="round" stroke-linejoin="round" d="M-5.236,-11.102 L-5.236,-8.273 L-3.25,-9.687 Z" fill="#7d7d7d"></path><path stroke-linecap="round" stroke-linejoin="round" d="M5.468,-22.415 L-5.236,-11.102 L-3.25,-9.687 L7.454,-21.001 Z" fill="#9e9e9e"></path><path stroke-linecap="round" stroke-linejoin="round" d="M12.404,6.859 L10.418,8.273 L-5.236,-8.273 L-3.25,-9.687 Z" fill="#a8a8a8"></path><path stroke-linecap="round" stroke-linejoin="round" d="M23.108,-4.455 L12.404,6.859 L-3.25,-9.687 L7.454,-21.001 Z" fill="url(&quot;#gradient-dynamic-1&quot;)"></path><path stroke-linecap="round" stroke-linejoin="round" d="M13.509,-8.526 L11.524,-6.435 L16.449,-2.083 L16.448,-2.082 L16.541,-2.003 L16.633,-1.649 L16.568,-1.553 L16.315,-1.593 L6.632,-4.932 L6.4,-5.159 L6.184,-5.405 L8.187,-7.477 L3.262,-11.83 L3.264,-11.83 L3.17,-11.909 L3.079,-12.262 L3.143,-12.359 L3.396,-12.32 L13.388,-9.075 L13.62,-8.848 Z" stroke="url(&quot;#gradient-dynamic-2&quot;)" stroke-width="0.6" fill="url(&quot;#gradient-dynamic-2&quot;)"></path><path stroke-linecap="round" stroke-linejoin="round" d="M5.468,-22.415 L8.144,-22.415 L7.454,-21.001 Z" fill="#cfcfcf"></path><path stroke-linecap="round" stroke-linejoin="round" d="M13.094,8.273 L10.418,8.273 L12.404,6.859 Z" fill="#d6d6d6"></path><path stroke-linecap="round" stroke-linejoin="round" d="M8.144,-22.415 L7.454,-21.001 L23.108,-4.455 L23.798,-5.869 Z" fill="#a8a8a8"></path><path d="M-9.934,10.501 L-11.941,12.622 " stroke="url(&quot;#gradient-dynamic-6&quot;)" stroke-width="8.4"></path><path stroke-linecap="round" stroke-linejoin="round" d="M-13.188,12.622 C-14.637,11.091 -15.218,9.899 -14.517,9.899 C-13.815,9.899 -12.143,11.091 -10.694,12.622 C-9.246,14.153 -8.664,15.344 -9.366,15.344 C-10.067,15.344 -11.74,14.153 -13.188,12.622 " stroke="url(&quot;#gradient-dynamic-6&quot;)" stroke-width="0.7" fill="url(&quot;#gradient-dynamic-6&quot;)"></path><path stroke-linecap="round" stroke-linejoin="round" d="M-11.181,10.501 C-9.733,12.032 -8.06,13.223 -7.359,13.223 C-6.657,13.223 -7.239,12.032 -8.687,10.501 C-10.136,8.969 -11.809,7.778 -12.51,7.778 C-13.211,7.778 -12.63,8.969 -11.181,10.501 " stroke="url(&quot;#gradient-dynamic-6&quot;)" stroke-width="0.7" fill="url(&quot;#gradient-dynamic-6&quot;)"></path><path stroke-linecap="round" stroke-linejoin="round" d="M23.798,-3.041 L13.094,8.273 L12.404,6.859 L23.108,-4.455 Z" fill="#ebebeb"></path><path stroke-linecap="round" stroke-linejoin="round" d="M-10.418,-11.102 L-5.236,-11.102 L-5.236,-8.273 L-10.418,-8.273 Z" fill="#a8a8a8"></path><path stroke-linecap="round" stroke-linejoin="round" d="M23.798,-3.041 L23.798,-5.869 L23.108,-4.455 Z" fill="#ededed"></path><path stroke-linecap="round" stroke-linejoin="round" d="M-10.418,-11.102 L-5.236,-11.102 L5.468,-22.415 L0.285,-22.415 Z" fill="#ababab"></path><path d="M6.69,-7.071 L-9.7,10.253 " stroke="url(&quot;#gradient-dynamic-5&quot;)" stroke-width="7.7"></path><path stroke-linecap="round" stroke-linejoin="round" d="M-10.947,10.253 C-12.396,8.722 -12.977,7.531 -12.276,7.531 C-11.574,7.531 -9.902,8.722 -8.453,10.253 C-7.004,11.784 -6.423,12.975 -7.125,12.975 C-7.826,12.975 -9.499,11.784 -10.947,10.253 " fill="url(&quot;#gradient-dynamic-5&quot;)"></path><path stroke-linecap="round" stroke-linejoin="round" d="M5.443,-7.071 C6.892,-5.54 8.564,-4.349 9.265,-4.349 C9.967,-4.349 9.386,-5.54 7.937,-7.071 C6.488,-8.602 4.816,-9.793 4.114,-9.793 C3.413,-9.793 3.994,-8.602 5.443,-7.071 " fill="url(&quot;#gradient-dynamic-5&quot;)"></path><path stroke-linecap="round" stroke-linejoin="round" d="M10.418,8.273 L5.236,8.273 L-10.418,-8.273 L-5.236,-8.273 Z" fill="#ababab"></path><path stroke-linecap="round" stroke-linejoin="round" d="M0.285,-22.415 L5.468,-22.415 L8.144,-22.415 L2.961,-22.415 Z" fill="#d9d9d9"></path><path stroke-linecap="round" stroke-linejoin="round" d="M13.094,8.273 L7.912,8.273 L5.236,8.273 L10.418,8.273 Z" fill="#a8a8a8"></path><path stroke-linecap="round" stroke-linejoin="round" d="M23.798,-5.869 L18.615,-5.869 L2.961,-22.415 L8.144,-22.415 Z" fill="url(&quot;#gradient-dynamic-0&quot;)"></path><path stroke-linecap="round" stroke-linejoin="round" d="M13.094,8.273 L7.912,8.273 L18.615,-3.041 L23.798,-3.041 Z" fill="#ababab"></path><path stroke-linecap="round" stroke-linejoin="round" d="M-10.418,-11.102 L-10.418,-8.273 L-9.728,-9.687 Z" fill="#d6d6d6"></path><path stroke-linecap="round" stroke-linejoin="round" d="M23.798,-3.041 L18.615,-3.041 L18.615,-5.869 L23.798,-5.869 Z" fill="#d9d9d9"></path><path stroke-linecap="round" stroke-linejoin="round" d="M0.285,-22.415 L-10.418,-11.102 L-9.728,-9.687 L0.975,-21.001 Z" fill="#ebebeb"></path><path stroke-linecap="round" stroke-linejoin="round" d="M-9.728,-9.687 L-10.418,-8.273 L5.236,8.273 L5.926,6.859 Z" fill="url(&quot;#gradient-dynamic-4&quot;)"></path><path stroke-linecap="round" stroke-linejoin="round" d="M0.285,-22.415 L2.961,-22.415 L0.975,-21.001 Z" fill="#ededed"></path><path stroke-linecap="round" stroke-linejoin="round" d="M7.912,8.273 L5.236,8.273 L5.926,6.859 Z" fill="#7d7d7d"></path><path stroke-linecap="round" stroke-linejoin="round" d="M0.975,-21.001 L-9.728,-9.687 L5.926,6.859 L16.63,-4.455 Z" fill="url(&quot;#gradient-dynamic-1&quot;)"></path><path stroke-linecap="round" stroke-linejoin="round" d="M4.779,-10.803 L2.8,-8.705 L-1.317,-13.911 L-1.318,-13.91 L-1.393,-14.009 L-1.727,-14.106 L-1.818,-14.038 L-1.781,-13.77 L1.378,-3.535 L1.593,-3.289 L1.826,-3.062 L3.787,-5.179 L7.904,0.027 L7.905,0.025 L7.979,0.124 L8.314,0.221 L8.405,0.153 L8.368,-0.115 L5.298,-10.675 L5.084,-10.921 Z" stroke="url(&quot;#gradient-dynamic-2&quot;)" stroke-width="0.6" fill="url(&quot;#gradient-dynamic-2&quot;)"></path><path stroke-linecap="round" stroke-linejoin="round" d="M18.615,-5.869 L16.63,-4.455 L0.975,-21.001 L2.961,-22.415 Z" fill="url(&quot;#gradient-dynamic-3&quot;)"></path><path stroke-linecap="round" stroke-linejoin="round" d="M18.615,-3.041 L7.912,8.273 L5.926,6.859 L16.63,-4.455 Z" fill="#9e9e9e"></path><path stroke-linecap="round" stroke-linejoin="round" d="M18.615,-3.041 L18.615,-5.869 L16.63,-4.455 Z" fill="#cfcfcf"></path></svg>
